<svg xmlns:ns0="http://www.w3.org/2000/svg" zoomAndPan="magnify" viewBox="0 0 770.88 602.249986" preserveAspectRatio="xMidYMid meet" version="1.0"><defs><clipPath id="90768e102d"><path d="M 0.417969 135.761719 L 770.339844 135.761719 L 770.339844 496 L 0.417969 496 Z M 0.417969 135.761719 " clip-rule="nonzero" /></clipPath><clipPath id="39f94261e9"><path d="M 735.699219 494.996094 C 754.761719 499.015625 770.34375 486.371094 770.34375 466.894531 L 770.34375 171.179688 C 770.34375 151.699219 754.40625 135.761719 734.925781 135.761719 L 35.835938 135.761719 C 16.355469 135.761719 0.417969 151.699219 0.417969 171.179688 L 0.417969 304.484375 C 0.417969 323.964844 16.019531 343.195312 35.066406 347.214844 Z M 735.699219 494.996094 " clip-rule="nonzero" /></clipPath><clipPath id="2c27098123"><path d="M 0.417969 0 L 770.339844 0 L 770.339844 360 L 0.417969 360 Z M 0.417969 0 " clip-rule="nonzero" /></clipPath><clipPath id="a53b315065"><path d="M 735.699219 359.230469 C 754.761719 363.25 770.34375 350.609375 770.34375 331.128906 L 770.34375 35.417969 C 770.34375 15.9375 754.40625 0 734.925781 0 L 35.835938 0 C 16.355469 0 0.417969 15.9375 0.417969 35.417969 L 0.417969 168.722656 C 0.417969 188.199219 16.019531 207.433594 35.066406 211.453125 Z M 735.699219 359.230469 " clip-rule="nonzero" /></clipPath><clipPath id="33acaa4f40"><path d="M 0.417969 241.347656 L 770.339844 241.347656 L 770.339844 601.5 L 0.417969 601.5 Z M 0.417969 241.347656 " clip-rule="nonzero" /></clipPath><clipPath id="9b23378a6e"><path d="M 735.699219 600.578125 C 754.761719 604.597656 770.34375 591.957031 770.34375 572.476562 L 770.34375 276.765625 C 770.34375 257.285156 754.40625 241.347656 734.925781 241.347656 L 35.835938 241.347656 C 16.355469 241.347656 0.417969 257.285156 0.417969 276.765625 L 0.417969 410.070312 C 0.417969 429.546875 16.019531 448.78125 35.066406 452.800781 Z M 735.699219 600.578125 " clip-rule="nonzero" /></clipPath></defs><g clip-path="url(#90768e102d)"><g clip-path="url(#39f94261e9)"><path fill="#ffffff" d="M 0.417969 135.761719 L 770.980469 135.761719 L 770.980469 495.734375 L 0.417969 495.734375 Z M 0.417969 135.761719 " fill-opacity="1" fill-rule="nonzero" /></g></g><g clip-path="url(#2c27098123)"><g clip-path="url(#a53b315065)"><path fill="#ffffff" d="M 0.417969 0 L 770.980469 0 L 770.980469 359.96875 L 0.417969 359.96875 Z M 0.417969 0 " fill-opacity="1" fill-rule="nonzero" /></g></g><g clip-path="url(#33acaa4f40)"><g clip-path="url(#9b23378a6e)"><path fill="#ffffff" d="M 0.417969 241.347656 L 770.980469 241.347656 L 770.980469 601.316406 L 0.417969 601.316406 Z M 0.417969 241.347656 " fill-opacity="1" fill-rule="nonzero" /></g></g></svg>